<svg xmlns="http://www.w3.org/2000/svg" width="20" height="20" viewBox="0 0 20 20">
  <path d="M3.33341 13.3327V3.33268H1.66675V1.66602H4.16675C4.38776 1.66602 4.59972 1.75381 4.756 1.91009C4.91228 2.06637 5.00008 2.27834 5.00008 2.49935V12.4993H15.3651L17.0317 5.83268H6.66675V4.16602H18.1001C18.2268 4.16602 18.3518 4.1949 18.4656 4.25046C18.5794 4.30603 18.6791 4.38681 18.757 4.48667C18.835 4.58653 18.8891 4.70285 18.9153 4.82677C18.9416 4.9507 18.9392 5.07897 18.9084 5.20185L16.8251 13.5352C16.7799 13.7154 16.6759 13.8753 16.5294 13.9896C16.383 14.1039 16.2025 14.166 16.0167 14.166H4.16675C3.94573 14.166 3.73377 14.0782 3.57749 13.9219C3.42121 13.7657 3.33341 13.5537 3.33341 13.3327ZM5.00008 19.166C4.55805 19.166 4.13413 18.9904 3.82157 18.6779C3.50901 18.3653 3.33341 17.9414 3.33341 17.4993C3.33341 17.0573 3.50901 16.6334 3.82157 16.3208C4.13413 16.0083 4.55805 15.8327 5.00008 15.8327C5.44211 15.8327 5.86603 16.0083 6.17859 16.3208C6.49115 16.6334 6.66675 17.0573 6.66675 17.4993C6.66675 17.9414 6.49115 18.3653 6.17859 18.6779C5.86603 18.9904 5.44211 19.166 5.00008 19.166ZM15.0001 19.166C14.5581 19.166 14.1341 18.9904 13.8216 18.6779C13.509 18.3653 13.3334 17.9414 13.3334 17.4993C13.3334 17.0573 13.509 16.6334 13.8216 16.3208C14.1341 16.0083 14.5581 15.8327 15.0001 15.8327C15.4421 15.8327 15.866 16.0083 16.1786 16.3208C16.4912 16.6334 16.6667 17.0573 16.6667 17.4993C16.6667 17.9414 16.4912 18.3653 16.1786 18.6779C15.866 18.9904 15.4421 19.166 15.0001 19.166Z"/>
</svg>
