<svg width="20" height="20" viewBox="0 0 20 20" fill="none" xmlns="http://www.w3.org/2000/svg">
<g clip-path="url(#clip0_6526_27503)">
<path d="M7.44575 13.5458C7.7398 13.8431 8.11201 14.0801 8.55829 14.2589L8.5611 14.26C8.80948 14.3538 9.08382 14.4216 9.3835 14.464V15.6501H10.7124V14.496C11.4702 14.4288 12.0937 14.2054 12.5725 13.8154L12.5734 13.8147C13.1582 13.3306 13.4487 12.6755 13.4487 11.8658C13.4487 11.3357 13.3352 10.8931 13.0939 10.5513C12.8686 10.215 12.57 9.9445 12.2008 9.73981C11.8489 9.54069 11.468 9.37519 11.0583 9.24302L9.92045 8.85493C9.5666 8.73639 9.28302 8.59564 9.06564 8.43525C8.87185 8.2856 8.77504 8.08641 8.77504 7.82167C8.77504 7.58495 8.86204 7.40137 9.03764 7.25818C9.21925 7.10907 9.50062 7.02265 9.90564 7.02265C10.2622 7.02265 10.5328 7.08495 10.7286 7.197L10.7318 7.19873C10.9351 7.30853 11.0753 7.44959 11.1618 7.62L11.165 7.62573C11.2638 7.80097 11.3191 7.98424 11.3321 8.17689L11.3416 8.31676H13.2239L13.2071 8.15162C13.1614 7.70079 13.0315 7.27564 12.8179 6.87726C12.5982 6.4675 12.2551 6.13569 11.797 5.87965C11.4977 5.70501 11.135 5.58991 10.7124 5.53052V4.3501H9.3835V5.51508C9.02076 5.55691 8.68279 5.63944 8.37186 5.76297C7.90421 5.95181 7.53011 6.23065 7.25637 6.60054C6.98609 6.96866 6.85514 7.41831 6.85514 7.94029C6.85514 8.45219 6.97374 8.88476 7.22337 9.22594L7.22475 9.22776C7.47267 9.556 7.78978 9.81834 8.17356 10.015C8.54473 10.2051 8.93061 10.3696 9.33113 10.5085L10.4378 10.8756C10.7815 10.9931 11.0506 11.1426 11.2509 11.3202C11.4333 11.4819 11.5288 11.7012 11.5288 11.9952C11.5288 12.2925 11.4252 12.5185 11.2214 12.6889C11.018 12.8589 10.7043 12.956 10.2559 12.956C9.83639 12.956 9.49854 12.8803 9.23478 12.7379C8.97103 12.5843 8.77667 12.3941 8.6458 12.1688C8.50992 11.9275 8.43336 11.6827 8.41337 11.4332L8.40231 11.2952H6.53906L6.54896 11.4545C6.5719 11.8236 6.65599 12.188 6.80028 12.5472C6.94629 12.9106 7.16104 13.2427 7.44301 13.543L7.44575 13.5458Z" fill="#6E6C7A"/>
<path fill-rule="evenodd" clip-rule="evenodd" d="M2 3.5C2 2.67157 2.67157 2 3.5 2H16.5C17.3284 2 18 2.67157 18 3.5V16.5C18 17.3284 17.3284 18 16.5 18H3.5C2.67157 18 2 17.3284 2 16.5V3.5ZM3.80078 3.80005H16.2008V16.2H3.80078V3.80005Z" fill="#6E6C7A"/>
</g>
<defs>
<clipPath id="clip0_6526_27503">
<rect width="20" height="20" fill="white"/>
</clipPath>
</defs>
</svg>
