<svg xmlns="http://www.w3.org/2000/svg" width="20" height="20" viewBox="0 0 20 20">
  <path d="M3.33334 18.3334C3.33334 16.5653 4.03572 14.8696 5.28596 13.6193C6.53621 12.3691 8.2319 11.6667 10 11.6667C11.7681 11.6667 13.4638 12.3691 14.7141 13.6193C15.9643 14.8696 16.6667 16.5653 16.6667 18.3334H15C15 17.0073 14.4732 15.7355 13.5355 14.7978C12.5979 13.8602 11.3261 13.3334 10 13.3334C8.67393 13.3334 7.40216 13.8602 6.46448 14.7978C5.52679 15.7355 5.00001 17.0073 5.00001 18.3334H3.33334ZM10 10.8334C7.23751 10.8334 5.00001 8.59587 5.00001 5.83337C5.00001 3.07087 7.23751 0.833374 10 0.833374C12.7625 0.833374 15 3.07087 15 5.83337C15 8.59587 12.7625 10.8334 10 10.8334ZM10 9.16671C11.8417 9.16671 13.3333 7.67504 13.3333 5.83337C13.3333 3.99171 11.8417 2.50004 10 2.50004C8.15834 2.50004 6.66668 3.99171 6.66668 5.83337C6.66668 7.67504 8.15834 9.16671 10 9.16671Z" />
</svg>
